<svg width="31" height="31" viewBox="0 0 31 31" fill="none" xmlns="http://www.w3.org/2000/svg">
<path d="M29.7857 27.4643L23.293 20.9687C25.2397 18.4319 26.1486 15.2495 25.8352 12.0672C25.5219 8.88485 24.0098 5.94085 21.6056 3.8324C19.2015 1.72395 16.0854 0.608935 12.8894 0.713533C9.69334 0.818131 6.65678 2.13451 4.39565 4.39565C2.13451 6.65678 0.818131 9.69334 0.713533 12.8894C0.608935 16.0854 1.72395 19.2015 3.8324 21.6056C5.94085 24.0098 8.88485 25.5219 12.0672 25.8352C15.2495 26.1486 18.4319 25.2397 20.9687 23.293L27.467 29.7926C27.6196 29.9452 27.8008 30.0662 28.0002 30.1488C28.1996 30.2314 28.4133 30.2739 28.6291 30.2739C28.8449 30.2739 29.0586 30.2314 29.258 30.1488C29.4574 30.0662 29.6386 29.9452 29.7912 29.7926C29.9438 29.64 30.0649 29.4588 30.1475 29.2594C30.2301 29.06 30.2726 28.8463 30.2726 28.6305C30.2726 28.4146 30.2301 28.2009 30.1475 28.0015C30.0649 27.8021 29.9438 27.621 29.7912 27.4684L29.7857 27.4643ZM4.01562 13.3125C4.01562 11.4737 4.56087 9.67629 5.58243 8.14743C6.60398 6.61857 8.05595 5.42696 9.75474 4.7233C11.4535 4.01964 13.3228 3.83554 15.1262 4.19426C16.9296 4.55298 18.5862 5.43842 19.8864 6.73861C21.1866 8.0388 22.072 9.69535 22.4307 11.4988C22.7895 13.3022 22.6053 15.1715 21.9017 16.8703C21.198 18.569 20.0064 20.021 18.4776 21.0426C16.9487 22.0641 15.1512 22.6094 13.3125 22.6094C10.8476 22.6068 8.48436 21.6265 6.74141 19.8836C4.99846 18.1406 4.01815 15.7774 4.01562 13.3125Z" fill="black"/>
</svg>
