<svg width="18" height="18" viewBox="0 0 18 18" fill="none" xmlns="http://www.w3.org/2000/svg">
<g clip-path="url(#clip0_3_2)">
<path d="M13.83 7.805L8.99998 3L4.16998 7.805C4.11299 7.8484 4.066 7.90353 4.03217 7.96667C3.99834 8.0298 3.97848 8.09947 3.97392 8.17096C3.96935 8.24244 3.98021 8.31407 4.00573 8.38099C4.03126 8.44792 4.07087 8.50858 4.12188 8.55886C4.17289 8.60915 4.23411 8.64789 4.30139 8.67246C4.36867 8.69703 4.44045 8.70685 4.51186 8.70127C4.58327 8.69569 4.65265 8.67483 4.7153 8.64011C4.77795 8.60538 4.8324 8.5576 4.87498 8.5L8.49998 4.905V14.47C8.49998 14.6026 8.55266 14.7298 8.64643 14.8236C8.74019 14.9173 8.86737 14.97 8.99998 14.97C9.13259 14.97 9.25977 14.9173 9.35353 14.8236C9.4473 14.7298 9.49998 14.6026 9.49998 14.47V4.905L13.125 8.5C13.2191 8.59349 13.3466 8.64575 13.4792 8.64528C13.6119 8.64481 13.739 8.59165 13.8325 8.4975C13.926 8.40335 13.9782 8.27591 13.9778 8.14323C13.9773 8.01055 13.9241 7.88349 13.83 7.79V7.805Z" fill="black"/>
</g>
<defs>
<clipPath id="clip0_3_2">
<rect width="18" height="18" fill="white"/>
</clipPath>
</defs>
</svg>
