<svg id="Layer_1" data-name="Layer 1" xmlns="http://www.w3.org/2000/svg" viewBox="0 0 135.21 17.05"><defs><style>.cls-1{fill:#231f20;stroke:#231f20;stroke-miterlimit:10;stroke-width:0.5px;}</style></defs><path class="cls-1" d="M7,16.9v-.52a4.12,4.12,0,0,0,1.72-.54,1.38,1.38,0,0,0,.41-1.11V2.45H6.3a1.91,1.91,0,0,0-.8.17A2.21,2.21,0,0,0,4.91,3a2.59,2.59,0,0,0-.43.6,3.89,3.89,0,0,0-.29.61L4,4.89l-.18.55H3.36l.12-4.22,1.35.18H15.4l1.33-.18.14,4.22h-.42c0-.06-.07-.24-.17-.55S16.1,4.36,16,4.2a3.89,3.89,0,0,0-.29-.61,2.32,2.32,0,0,0-.43-.6,2.15,2.15,0,0,0-.58-.37,1.92,1.92,0,0,0-.81-.17H11V14.73a1.39,1.39,0,0,0,.43,1.13,4,4,0,0,0,1.76.57v.47Z" transform="translate(-3.11 -0.49)"/><path class="cls-1" d="M30.13,14a4.17,4.17,0,0,0,1,1.7,2.86,2.86,0,0,0,1.19.66v.54H26.67v-.54a2.84,2.84,0,0,0,1.5-.59c.29-.29.3-.8,0-1.53l-1.05-2.87h-6L20,14.28c-.45,1.11.18,1.8,1.89,2.08v.54H16.71v-.52a3.1,3.1,0,0,0,1.82-1.93L23,3.55c.22-.54.2-.94-.06-1.18a2.87,2.87,0,0,0-1.5-.52V1.43L25.09.77Zm-8.52-3.71h5.13l-2.45-6.6h0Z" transform="translate(-3.11 -0.49)"/><path class="cls-1" d="M33.44,16.9v-.52q2-.27,2-1.26l.07-11.71a1.15,1.15,0,0,0-.46-1,3.78,3.78,0,0,0-1.61-.51V1.43L38,1.4l0,0,5.2,11.78L48.05,1.43h4.38v.46a3.41,3.41,0,0,0-1.64.56,1.57,1.57,0,0,0-.36,1.15V14.73a1.53,1.53,0,0,0,.36,1.14,3.41,3.41,0,0,0,1.64.56v.47H46.69v-.52a2.85,2.85,0,0,0,1.54-.51,1.69,1.69,0,0,0,.31-1.14V2.85L42.91,16.1h-.37L36.71,3.29V14.73a1.4,1.4,0,0,0,.42,1.14,4.26,4.26,0,0,0,1.86.56v.47Z" transform="translate(-3.11 -0.49)"/><path class="cls-1" d="M60.18,17l-5.32-.09v-.52a3.38,3.38,0,0,0,1.6-.53,1.54,1.54,0,0,0,.34-1.12V3.57a1.56,1.56,0,0,0-.34-1.12,3.5,3.5,0,0,0-1.6-.53V1.4l5-.07c4.19,0,6.28,1.13,6.28,3.53q0,3.27-4.27,3.64v0a6.79,6.79,0,0,1,3.63,1.11,3.41,3.41,0,0,1,1.39,2.95,3.74,3.74,0,0,1-1.73,3.27A8.62,8.62,0,0,1,60.18,17ZM58.71,8.15c.57,0,1.08,0,1.5-.06a9.47,9.47,0,0,0,1.42-.25,4.26,4.26,0,0,0,1.27-.49,2.51,2.51,0,0,0,.84-.87,2.7,2.7,0,0,0,.34-1.37A2.46,2.46,0,0,0,62.76,2.8a8.48,8.48,0,0,0-4-.67Zm2.66,8a3.42,3.42,0,0,0,2.36-.89,3.11,3.11,0,0,0,1-2.47q0-3.58-4.5-3.59H58.71V15C59.07,15.78,60,16.15,61.37,16.15Z" transform="translate(-3.11 -0.49)"/><path class="cls-1" d="M78.92,1.43h5.32v.46a2.69,2.69,0,0,0-1.46.58,1.58,1.58,0,0,0-.34,1.13V11a6.06,6.06,0,0,1-1.75,4.71,6,6,0,0,1-4.25,1.61c-2.16,0-3.72-.54-4.66-1.64A7,7,0,0,1,70.35,11V3.6a1.71,1.71,0,0,0-.3-1.15,3.16,3.16,0,0,0-1.59-.51V1.43h5.77v.46a3.4,3.4,0,0,0-1.63.55,1.64,1.64,0,0,0-.33,1.16v7.25q0,5.28,4.38,5.28a4.09,4.09,0,0,0,3.43-1.36,6.82,6.82,0,0,0,1.08-4.27v-7a1.3,1.3,0,0,0-.46-1,3.71,3.71,0,0,0-1.78-.54Z" transform="translate(-3.11 -0.49)"/><path class="cls-1" d="M99.71,17.11a6.2,6.2,0,0,1-2.39-.46,7.58,7.58,0,0,1-1.92-1.07,9.51,9.51,0,0,1-1.64-1.76,23.55,23.55,0,0,1-1.36-2c-.32-.54-.75-1.27-1.28-2.21-.14-.26-.25-.45-.33-.58V8.94A9.45,9.45,0,0,0,94.53,8a2.6,2.6,0,0,0,1-2.41A3,3,0,0,0,94.27,3,7.44,7.44,0,0,0,90,2.15V14.73a1.61,1.61,0,0,0,.33,1.15,3.14,3.14,0,0,0,1.59.55v.47H86.17v-.52a3.33,3.33,0,0,0,1.6-.53,1.5,1.5,0,0,0,.34-1.12V3.5A1.59,1.59,0,0,0,88,3a.83.83,0,0,0-.23-.37l-.3-.25a1.23,1.23,0,0,0-.39-.16l-.37-.09-.4-.06L86,2V1.4l5.37-.07a8,8,0,0,1,4.77,1.14,3.57,3.57,0,0,1,1.6,3,3.31,3.31,0,0,1-1.19,2.66,5.35,5.35,0,0,1-3.31,1.1c.4.73.78,1.37,1.13,1.92s.78,1.18,1.31,1.87a12.69,12.69,0,0,0,1.51,1.71A7.55,7.55,0,0,0,98.9,16a4.39,4.39,0,0,0,1.88.55v.4A2.28,2.28,0,0,1,99.71,17.11Z" transform="translate(-3.11 -0.49)"/><path class="cls-1" d="M101.71,16.9v-.52a3,3,0,0,0,1.59-.51,1.69,1.69,0,0,0,.3-1.14V3.6a1.71,1.71,0,0,0-.3-1.15,3.16,3.16,0,0,0-1.59-.51V1.43h5.77v.46a3.4,3.4,0,0,0-1.63.55,1.64,1.64,0,0,0-.33,1.16V14.73a1.61,1.61,0,0,0,.33,1.15,3.29,3.29,0,0,0,1.63.55v.47Z" transform="translate(-3.11 -0.49)"/><path class="cls-1" d="M123.74,17.15,113.52,4.69v10a1.4,1.4,0,0,0,.42,1.14,4.26,4.26,0,0,0,1.87.56v.47h-5.56v-.52c1.36-.2,2-.62,2-1.26V3.41a1.17,1.17,0,0,0-.46-1,3.33,3.33,0,0,0-1.59-.5V1.43h3.31L123,13V3.57a1.41,1.41,0,0,0-.42-1.14,4.26,4.26,0,0,0-1.86-.56V1.4h5.55v.52c-1.35.2-2,.62-2,1.26v14Z" transform="translate(-3.11 -0.49)"/><path class="cls-1" d="M132.75,17.25a6,6,0,0,1-3.34-.94,2.91,2.91,0,0,1-1.47-2.59,2.68,2.68,0,0,1,.44-1.37,3.66,3.66,0,0,1,1.36-1.24l.35.23a5.41,5.41,0,0,0,0,3.62,2.61,2.61,0,0,0,2.64,1.33,3.61,3.61,0,0,0,2.36-.75A2.62,2.62,0,0,0,136,13.4c0-1.26-.77-2.3-2.29-3.11l-2.36-1.23q-2.91-1.55-2.91-3.85a3.88,3.88,0,0,1,1.33-3.09A5.23,5.23,0,0,1,133.38,1a4.8,4.8,0,0,1,2.91.85,2.48,2.48,0,0,1,1.17,2,2.44,2.44,0,0,1-.93,1.92l-.31-.14a3.88,3.88,0,0,0-.77-2.57A2.85,2.85,0,0,0,133,1.92a2.47,2.47,0,0,0-1.88.78,2.58,2.58,0,0,0-.73,1.83,3.16,3.16,0,0,0,2,2.89l2.75,1.4c1.93,1,2.9,2.31,2.9,4a3.79,3.79,0,0,1-1.63,3.3A6.2,6.2,0,0,1,132.75,17.25Z" transform="translate(-3.11 -0.49)"/></svg>